{"title":"Hercules in the Underworld (1994) DVD RIP","uid":10989764,"size":1368397328,"categoryP":"video","categoryS":"movies","magnet":"?xt=urn:btih:6767514e6367fd03f8b89f024195e9499c61adb5&amp;dn=Hercules+in+the+Underworld+%281994%29+DVD+RIP&amp;tr=udp%3A%2F%2Ftracker.openbittorrent.com%3A80&amp;tr=udp%3A%2F%2Fopen.demonii.com%3A1337&amp;tr=udp%3A%2F%2Ftracker.coppersurfer.tk%3A6969&amp;tr=udp%3A%2F%2Fexodus.desync.com%3A6969","seeders":1,"leechers":2,"uploader":"jmanwf","files":-1,"time":1409982292,"description":"Movie Info\n\nIn this made-for-TV movie, which was a precursor to the popular television adventure series Hercules: The Legendary Journeys, Hercules (Kevin Sorbo) must come to the rescue when a crack in the surface of the Earth turns out to be a tunnel straight to the depth of Hell. The residents of a nearby village have been tumbling into the fiery pit, and now it's up to Hercules to bring them back to Earth. Hercules: In the Underworld also stars Anthony Quinn as Zeus and Tawny Kitaen as Deianeira\n\n\n\nFormat : MPEG-4\nFormat profile : Base Media / Version 2\nCodec ID : mp42\nFile size : 1.27 GiB\nDuration : 1h 30mn\nOverall bit rate : 2 010 Kbps\nEncoded date : UTC 2014-08-29 09:51:09\nTagged date : UTC 2014-08-29 10:27:11\nWriting application : HandBrake 0.9.9 2013052900\n\nVideo\nID : 1\nFormat : AVC\nFormat/Info : Advanced Video Codec\nFormat profile : &lt;a class=&quot;__cf_email__&quot; href=&quot;/cdn-cgi/l/email-protection&quot; data-cfemail=&quot;bcf4d5dbd4fcf088928d&quot;&gt;[email&amp;#160;protected]&lt;/a&gt;&lt;script cf-hash='f9e31' type=&quot;text/javascript&quot;&gt;\n/* &lt;![CDATA[ */!function(){try{var t=&quot;currentScript&quot;in document?document.currentScript:function(){for(var t=document.getElementsByTagName(&quot;script&quot;),e=t.length;e--;)if(t[e].getAttribute(&quot;cf-hash&quot;))return t[e]}();if(t&amp;&amp;t.previousSibling){var e,r,n,i,c=t.previousSibling,a=c.getAttribute(&quot;data-cfemail&quot;);if(a){for(e=&quot;&quot;,r=parseInt(a.substr(0,2),16),n=2;a.length-n;n+=2)i=parseInt(a.substr(n,2),16)^r,e+=String.fromCharCode(i);e=document.createTextNode(e),c.parentNode.replaceChild(e,c)}}}catch(u){}}();/* ]]&gt; */&lt;/script&gt;\nFormat settings, CABAC : Yes\nFormat settings, ReFrames : 4 frames\nCodec ID : avc1\nCodec ID/Info : Advanced Video Coding\nDuration : 1h 30mn\nBit rate : 1 558 Kbps\nWidth : 720 pixels\nHeight : 488 pixels\nDisplay aspect ratio : 4:3\nOriginal display aspect ratio : 4:3\nFrame rate mode : Variable\nFrame rate : 26.532 fps\nMinimum frame rate : 19.969 fps\nMaximum frame rate : 59.960 fps\nColor space : YUV\nChroma subsampling : 4:2:0\nBit depth : 8 bits\nScan type : Progressive\nBits/(Pixel*Frame) : 0.167\nStream size : 1 012 MiB (78%)\nWriting library : x264 core 130 r2273 b3065e6\nEncoded date : UTC 2014-08-29 09:51:09\nTagged date : UTC 2014-08-29 10:27:11\nColor primaries : BT.601 NTSC\nTransfer characteristics : BT.709\nMatrix coefficients : BT.601\n\nAudio\nID : 2\nFormat : AC-3\nFormat/Info : Audio Coding 3\nMode extension : CM (complete main)\nFormat settings, Endianness : Big\nCodec ID : ac-3\nDuration : 1h 30mn\nBit rate mode : Constant\nBit rate : 448 Kbps\nChannel(s) : 6 channels\nChannel positions : Front: L C R, Side: L R, LFE\nSampling rate : 48.0 KHz\nBit depth : 16 bits\nCompression mode : Lossy\nStream size : 291 MiB (22%)\nLanguage : English\nEncoded date : UTC 2014-08-29 09:51:09\nTagged date : UTC 2014-08-29 10:27:10\n\n\n &lt;a href=&quot;\nhttp://www.imdb.com/title/tt0110019/&quot; rel=&quot;nofollow&quot; target=&quot;_NEW&quot;&gt;\nhttp://www.imdb.com/title/tt0110019/&lt;/a&gt;","torrent":{"xt":"urn:btih:6767514e6367fd03f8b89f024195e9499c61adb5","amp;dn":"Hercules+in+the+Underworld+%281994%29+DVD+RIP","amp;tr":["udp%3A%2F%2Ftracker.openbittorrent.com%3A80","udp%3A%2F%2Fopen.demonii.com%3A1337","udp%3A%2F%2Ftracker.coppersurfer.tk%3A6969","udp%3A%2F%2Fexodus.desync.com%3A6969"],"infoHash":"6767514e6367fd03f8b89f024195e9499c61adb5","infoHashBuffer":{"type":"Buffer","data":[103,103,81,78,99,103,253,3,248,184,159,2,65,149,233,73,156,97,173,181]},"announce":[],"urlList":[]}}